<?xml version="1.0" encoding="UTF-8"?>
<svg xmlns="http://www.w3.org/2000/svg" viewBox="0 0 100 100">
  <rect width="100" height="100" rx="22" fill="#9B003C"/>
  <g transform="translate(18,18) scale(0.64)">
    <polygon points="50,2 74,26 50,50" fill="#BE0047"/>
    <polygon points="74,26 98,50 50,50" fill="#8A0030"/>
    <polygon points="98,50 74,74 50,50" fill="#BE0047"/>
    <polygon points="74,74 50,98 50,50" fill="#8A0030"/>
    <polygon points="50,98 26,74 50,50" fill="#BE0047"/>
    <polygon points="26,74 2,50 50,50" fill="#8A0030"/>
    <polygon points="2,50 26,26 50,50" fill="#BE0047"/>
    <polygon points="26,26 50,2 50,50" fill="#8A0030"/>
    <polygon points="50,34 66,50 50,66 34,50" fill="white"/>
  </g>
</svg>